# xmcd
#
# Track frame offsets: 
#        150
#        29396
#        56703
#        79294
#        101334
#        125704
#        148126
#        176125
#        199652
#        233302
#
# Disc length: 3454 seconds
#
# Revision: 0
# Processed by: cddbd v1.5.2PL0 Copyright (c) Steve Scherf et al.
# Submitted via: ExactAudioCopy v1.0b3
#
DISCID=880d7c0a
DTITLE=Various Artist - Me Hien, Me La Bai Ca Dao
DYEAR=2001
DGENRE=
TTITLE0=Hoai Nam - Me hien
TTITLE1=My Huyen - Me la bai ca dao
TTITLE2=Manh Quynh - Loi ve dat Me
TTITLE3=Phi Nhung - Long Me
TTITLE4=Manh Quynh - Long Me 2
TTITLE5=Yen Vi - Ve que ngoai
TTITLE6=Hoai Nam - Thu cho Me
TTITLE7=Phi Nhung - Suong trang mien que ngoai
TTITLE8=Manh Hung - Ba Me phu sa
TTITLE9=Manh Quynh - Giua long dat Me
EXTD=
EXTT0=
EXTT1=
EXTT2=
EXTT3=
EXTT4=
EXTT5=
EXTT6=
EXTT7=
EXTT8=
EXTT9=
PLAYORDER=
